<svg width="24" height="24" viewBox="0 0 24 24" fill="none" xmlns="http://www.w3.org/2000/svg">
  <!-- Pet/Animal head -->
  <path d="M12,12C14.21,12 16,10.21 16,8C16,5.79 14.21,4 12,4C9.79,4 8,5.79 8,8C8,10.21 9.79,12 12,12Z" 
        stroke="white" 
        stroke-width="2.66667" 
        stroke-linecap="round" 
        stroke-linejoin="round" 
        fill="none"/>
  
  <!-- Left ear -->
  <path d="M8,5C8,3.9 7.1,3 6,3C4.9,3 4,3.9 4,5C4,6.1 4.9,7 6,7" 
        stroke="white" 
        stroke-width="2.66667" 
        stroke-linecap="round" 
        stroke-linejoin="round" 
        fill="none"/>
  
  <!-- Right ear -->
  <path d="M16,5C16,3.9 16.9,3 18,3C19.1,3 20,3.9 20,5C20,6.1 19.1,7 18,7" 
        stroke="white" 
        stroke-width="2.66667" 
        stroke-linecap="round" 
        stroke-linejoin="round" 
        fill="none"/>
  
  <!-- Neck -->
  <path d="M12,12V15" 
        stroke="white" 
        stroke-width="2.66667" 
        stroke-linecap="round" 
        stroke-linejoin="round" 
        fill="none"/>
  
  <!-- Body -->
  <path d="M8,12C7.5,13.5 7,15 7,17C7,18.66 8.34,20 10,20H14C15.66,20 17,18.66 17,17C17,15 16.5,13.5 16,12" 
        stroke="white" 
        stroke-width="2.66667" 
        stroke-linecap="round" 
        stroke-linejoin="round" 
        fill="none"/>
  
  <!-- Alert circle background -->
  <circle cx="18" cy="18" r="4" fill="white"/>
  
  <!-- Exclamation mark - line -->
  <path d="M18,15.5V17.5" 
        stroke="#155DFC" 
        stroke-width="2" 
        stroke-linecap="round" 
        stroke-linejoin="round"/>
  
  <!-- Exclamation mark - dot -->
  <circle cx="18" cy="19.5" r="0.5" fill="#155DFC"/>
</svg>

